# xmcd
#
# Track frame offsets: 
#        150
#        10741
#        36150
#        50192
#        63607
#        83729
#        96664
#        108903
#        122115
#        133281
#        148043
#        162992
#        174358
#        186062
#        196937
#        212168
#        226367
#        239365
#
# Disc length: 3358 seconds
#
# Revision: 1
# Processed by: cddbd v1.5.2PL0 Copyright (c) Steve Scherf et al.
# Submitted via: ExactAudioCopy v0.95b4
#
DISCID=080d1c12
DTITLE=Various Artist - Lady Sings The Blues
DYEAR=2001
DGENRE=Blues
TTITLE0=Sarah Vaughan - No Smoke Blues 
TTITLE1=Billie Holiday - One For My Baby
TTITLE2=Mildred Bailey - Lover Come Back To Me
TTITLE3=Bessie Smith - Nobody Knows You When You're Down And Out
TTITLE4=Carmen Mcrae - Body and Soul
TTITLE5=Dinah Washington - All Or Nothing Blues
TTITLE6=Peggy Lee - I Gotta Right To sing The Blues
TTITLE7=Betty Lavette - You Killed My Love
TTITLE8=Maxine Brown - All In My Mind
TTITLE9=Sarah Vaughan - Summertime
TTITLE10=Billie Holiday - Lover Man
TTITLE11=Linda Hayes - Take Me Back
TTITLE12=Lavern Baker - Trying
TTITLE13=Irma Thomas - Set Me Free
TTITLE14=Esther Phillips - No Headstone On My Grave
TTITLE15=Ma Rainey - Chain Gang Blues
TTITLE16=Faye Adams - Shake A Hand 
TTITLE17=Della Reese - Birth Of The Blues
EXTD=
EXTT0=
EXTT1=
EXTT2=
EXTT3=
EXTT4=
EXTT5=
EXTT6=
EXTT7=
EXTT8=
EXTT9=
EXTT10=
EXTT11=
EXTT12=
EXTT13=
EXTT14=
EXTT15=
EXTT16=
EXTT17=
PLAYORDER=
